<?xml version="1.0" encoding="UTF-8" standalone="no"?>
<!DOCTYPE svg PUBLIC "-//W3C//DTD SVG 1.1//EN" "http://www.w3.org/Graphics/SVG/1.1/DTD/svg11.dtd">
<svg width="100%" height="100%" viewBox="0 0 695 841" version="1.1" xmlns="http://www.w3.org/2000/svg" xmlns:xlink="http://www.w3.org/1999/xlink" xml:space="preserve" xmlns:serif="http://www.serif.com/" style="fill-rule:evenodd;clip-rule:evenodd;stroke-linecap:round;stroke-linejoin:round;stroke-miterlimit:1.5;">
    <g transform="matrix(1,0,0,1,-1173,-666)">
        <g>
            <g transform="matrix(1,0,0,1,75,11)">
                <path d="M1363,721.039C1363,684.591 1394.81,655 1434,655C1473.19,655 1505.01,684.591 1505.01,721.039C1524.6,689.474 1568.06,678.643 1602,696.867C1635.94,715.091 1647.58,755.513 1627.99,787.078C1661.93,768.854 1705.39,779.685 1724.99,811.25C1744.58,842.815 1732.93,883.237 1699,901.461C1738.18,901.461 1770,931.052 1770,967.5C1770,1003.95 1738.18,1033.54 1699,1033.54C1732.93,1051.76 1744.58,1092.18 1724.99,1123.75C1705.39,1155.32 1661.93,1166.15 1627.99,1147.92C1647.58,1179.49 1635.94,1219.91 1602,1238.13C1568.06,1256.36 1524.6,1245.53 1505.01,1213.96C1505.01,1250.41 1473.19,1280 1434,1280C1394.81,1280 1363,1250.41 1363,1213.96C1343.4,1245.53 1299.94,1256.36 1266,1238.13C1232.06,1219.91 1220.42,1179.49 1240.01,1147.92C1206.07,1166.15 1162.61,1155.32 1143.02,1123.75C1123.42,1092.18 1135.07,1051.76 1169.01,1033.54C1129.82,1033.54 1098,1003.95 1098,967.5C1098,931.052 1129.82,901.461 1169.01,901.461C1135.07,883.237 1123.42,842.815 1143.02,811.25C1162.61,779.685 1206.07,768.854 1240.01,787.078C1220.42,755.513 1232.06,715.091 1266,696.867C1299.94,678.643 1343.4,689.474 1363,721.039Z" style="fill:rgb(42,88,88);"/>
                <g transform="matrix(1.88235,0,0,1,-586.559,-78)">
                    <path d="M1069.29,1280.46C1095.25,1247.53 1131.91,1227 1172.5,1227C1148.91,1267.13 1129.75,1330.39 1129.75,1399C1129.75,1467.61 1148.91,1530.87 1172.5,1571C1133.15,1571 1097.51,1551.71 1071.71,1520.54C1045.75,1553.47 1009.09,1574 968.5,1574C992.094,1533.87 1011.25,1470.61 1011.25,1402C1011.25,1333.39 992.094,1270.13 968.5,1230C1007.85,1230 1043.49,1249.29 1069.29,1280.46Z" style="fill:rgb(42,88,88);"/>
                </g>
                <g transform="matrix(0.424728,0,0,0.424728,429.253,564.27)">
                    <g transform="matrix(1.03049,0,0,0.957118,1026.33,-199.138)">
                        <path d="M1292,1226C1292,1226 1706,1659.48 1706,1845.26C1706,2091.27 1520.49,2291 1292,2291C1063.51,2291 878,2091.27 878,1845.26C878,1659.48 1292,1226 1292,1226Z" style="fill:rgb(136,183,160);"/>
                    </g>
                    <g transform="matrix(-0.16466,-2.07942,1.91632,-0.13538,69.6069,6969.08)">
                        <path d="M2472.5,1512C2435.66,1539.75 2405.75,1604.8 2405.75,1678.5C2405.75,1752.2 2435.66,1817.25 2472.5,1845C2398.82,1845 2339,1770.39 2339,1678.5C2339,1586.61 2398.82,1512 2472.5,1512Z" style="fill:rgb(136,183,160);stroke:rgb(42,88,88);stroke-width:9.83px;"/>
                    </g>
                    <g transform="matrix(0.560238,-0.259454,0.300956,0.579771,1269.37,492.477)">
                        <path d="M1146.5,438C1146.5,438 1361,750.941 1361,885.059C1361,997.065 1264.89,1088 1146.5,1088C1028.11,1088 932,997.065 932,885.059C932,750.941 1146.5,438 1146.5,438Z" style="fill:rgb(136,183,160);stroke:rgb(42,88,88);stroke-width:30.2px;"/>
                    </g>
                    <g transform="matrix(-0.560238,-0.259454,-0.300956,0.579771,3475.88,496.386)">
                        <path d="M1146.5,438C1146.5,438 1361,750.941 1361,885.059C1361,997.065 1264.89,1088 1146.5,1088C1028.11,1088 932,997.065 932,885.059C932,750.941 1146.5,438 1146.5,438Z" style="fill:rgb(136,183,160);stroke:rgb(42,88,88);stroke-width:30.2px;"/>
                    </g>
                    <g transform="matrix(0.827593,0,0,0.781695,1174.68,14.3671)">
                        <ellipse cx="1449" cy="1212.5" rx="336" ry="324.5" style="fill:rgb(136,183,160);stroke:rgb(42,88,88);stroke-width:24.37px;"/>
                    </g>
                    <g transform="matrix(0.827593,0,0,-0.781695,-254.568,2794.86)">
                        <path d="M2823.02,1018.5L2568.25,1018.5C2551.71,1034.77 2543,1053.22 2543,1072C2543,1094.26 2572,1117.94 2592.53,1135.07C2626.4,1163.34 2666.5,1178.94 2731.18,1179C2689.54,1259.5 2650,1350.63 2650,1406.5C2650,1503.91 2729.09,1583 2826.5,1583C2923.91,1583 3003,1503.91 3003,1406.5C3003,1337.99 2920,1091.92 2920,1072C2920,1053.22 2911.29,1034.77 2894.75,1018.5L2829.98,1018.5C2827.73,1014.92 2826.5,1013 2826.5,1013C2826.5,1013 2825.27,1014.92 2823.02,1018.5Z" style="fill:rgb(136,183,160);stroke:rgb(42,88,88);stroke-width:24.37px;"/>
                    </g>
                    <g transform="matrix(-0.827593,0,0,-0.781695,4967.54,2790.17)">
                        <path d="M2823.02,1018.5L2568.25,1018.5C2551.71,1034.77 2543,1053.22 2543,1072C2543,1094.26 2572,1117.94 2592.53,1135.07C2626.4,1163.34 2666.5,1178.94 2731.18,1179C2689.54,1259.5 2650,1350.63 2650,1406.5C2650,1503.91 2729.09,1583 2826.5,1583C2923.91,1583 3003,1503.91 3003,1406.5C3003,1337.99 2920,1091.92 2920,1072C2920,1053.22 2911.29,1034.77 2894.75,1018.5L2829.98,1018.5C2827.73,1014.92 2826.5,1013 2826.5,1013C2826.5,1013 2825.27,1014.92 2823.02,1018.5Z" style="fill:rgb(136,183,160);stroke:rgb(42,88,88);stroke-width:24.37px;"/>
                    </g>
                    <g transform="matrix(-0.762164,0.304629,-0.217909,-0.486402,4078.29,1183.36)">
                        <path d="M2356.66,1301C2357.54,1306.65 2358,1312.5 2358,1318.5C2358,1365.69 2329.32,1404 2294,1404C2258.68,1404 2230,1365.69 2230,1318.5C2230,1312.5 2230.46,1306.65 2231.34,1301L2231,1301L2231,1096L2358,1096L2358,1301L2356.66,1301Z" style="fill:rgb(136,183,160);stroke:rgb(136,183,160);stroke-width:27.84px;"/>
                    </g>
                    <g transform="matrix(-0.762164,-0.304629,-0.217909,0.486402,4541.23,1523.18)">
                        <path d="M2356.66,1301C2357.54,1306.65 2358,1312.5 2358,1318.5C2358,1365.69 2329.32,1404 2294,1404C2258.68,1404 2230,1365.69 2230,1318.5C2230,1312.5 2230.46,1306.65 2231.34,1301L2231,1301L2231,1096L2358,1096L2358,1301L2356.66,1301Z" style="fill:rgb(42,88,88);stroke:rgb(42,88,88);stroke-width:27.84px;"/>
                    </g>
                    <g transform="matrix(0.722107,0,0,0.923822,666.989,185.274)">
                        <ellipse cx="2249.5" cy="772" rx="48.5" ry="55" style="fill:rgb(18,58,58);stroke:rgb(18,58,58);stroke-width:23.66px;"/>
                        <g transform="matrix(1.5,0,0,2,-1122,-741)">
                            <circle cx="2252" cy="749" r="8" style="fill:rgb(243,253,253);"/>
                        </g>
                    </g>
                    <g transform="matrix(0.722107,0,0,0.923822,825.887,184.492)">
                        <ellipse cx="2249.5" cy="772" rx="48.5" ry="55" style="fill:rgb(18,58,58);stroke:rgb(18,58,58);stroke-width:23.66px;"/>
                        <g transform="matrix(1.5,0,0,2,-1122,-741)">
                            <circle cx="2252" cy="749" r="8" style="fill:rgb(243,251,251);"/>
                        </g>
                    </g>
                    <g transform="matrix(0.827593,0,0,0.781695,577.99,249.657)">
                        <path d="M2201.24,983.25L2139.76,983.25C2136.64,979.374 2135,974.976 2135,970.5C2135,956.426 2150.91,945 2170.5,945C2190.09,945 2206,956.426 2206,970.5C2206,974.976 2204.36,979.374 2201.24,983.25Z" style="fill:rgb(18,58,58);stroke:rgb(18,58,58);stroke-width:24.37px;"/>
                    </g>
                    <g transform="matrix(5.06754e-17,-0.781695,0.827593,4.7865e-17,1454,2563.87)">
                        <path d="M1974.5,1012C1949.46,1016.08 1929.12,1036.63 1929.12,1061C1929.12,1085.37 1949.46,1105.92 1974.5,1110C1941.11,1110 1914,1088.04 1914,1061C1914,1033.96 1941.11,1012 1974.5,1012Z" style="fill:rgb(18,58,58);stroke:rgb(18,58,58);stroke-width:24.37px;"/>
                    </g>
                    <g transform="matrix(-5.06754e-17,-0.781695,-0.827593,4.7865e-17,3296.22,2563.87)">
                        <path d="M1974.5,1012C1949.46,1016.08 1929.12,1036.63 1929.12,1061C1929.12,1085.37 1949.46,1105.92 1974.5,1110C1941.11,1110 1914,1088.04 1914,1061C1914,1033.96 1941.11,1012 1974.5,1012Z" style="fill:rgb(18,58,58);stroke:rgb(18,58,58);stroke-width:24.37px;"/>
                    </g>
                    <g transform="matrix(-0.00195186,-0.104741,0.575678,-0.00957096,1249.17,1878.92)">
                        <path d="M2361,1747C2251.09,1748.91 2161.85,1838.09 2161.85,1947.5C2161.85,2056.91 2251.09,2146.09 2361,2148C2247.86,2148 2156,2058.16 2156,1947.5C2156,1836.84 2247.86,1747 2361,1747Z" style="fill:rgb(42,88,88);stroke:rgb(42,88,88);stroke-width:47.43px;"/>
                    </g>
                    <g transform="matrix(0.167164,-0.0233776,0.0764662,0.554904,1561.21,-401.308)">
                        <path d="M2361,1747C2332.71,1797.12 2309.75,1869.71 2309.75,1947.5C2309.75,2025.29 2332.71,2097.88 2361,2148C2247.86,2148 2156,2058.16 2156,1947.5C2156,1836.84 2247.86,1747 2361,1747Z" style="fill:rgb(42,88,88);stroke:rgb(42,88,88);stroke-width:47.46px;"/>
                    </g>
                    <g transform="matrix(-0.167164,-0.0233776,-0.0764662,0.554904,3176.39,-378.308)">
                        <path d="M2361,1747C2332.71,1797.12 2309.75,1869.71 2309.75,1947.5C2309.75,2025.29 2332.71,2097.88 2361,2148C2247.86,2148 2156,2058.16 2156,1947.5C2156,1836.84 2247.86,1747 2361,1747Z" style="fill:rgb(42,88,88);stroke:rgb(42,88,88);stroke-width:47.46px;"/>
                    </g>
                </g>
            </g>
            <g transform="matrix(0.437679,0,0,0.406515,939.165,488.691)">
                <path d="M1046.13,1516.58L1079.82,1597.54L985.891,1637.96L976.529,1615.46C998.03,1582.56 1021.71,1549.21 1046.13,1516.58Z" style="fill:rgb(42,88,88);stroke:rgb(42,88,88);stroke-width:19.73px;"/>
            </g>
        </g>
    </g>
</svg>
